<svg width="32" height="32" viewBox="0 0 32 32" fill="none" xmlns="http://www.w3.org/2000/svg">
<path d="M25.8329 20.1376C26.6981 18.082 26.8972 15.807 26.4024 13.6323C25.9075 11.4577 24.7436 9.49283 23.0742 8.01398C21.4048 6.53512 19.3139 5.61666 17.0954 5.38772C14.8769 5.15878 12.6425 5.63088 10.7063 6.73764L9.38362 4.42164C11.4071 3.26513 13.6985 2.65946 16.0292 2.66508C18.3599 2.67069 20.6484 3.28739 22.6663 4.45364C28.6529 7.90964 30.9463 15.3096 28.1556 21.4803L29.9449 22.5123L24.3916 25.4643L24.1716 19.179L25.8329 20.1376ZM6.16628 11.863C5.30114 13.9186 5.10199 16.1936 5.59684 18.3683C6.09168 20.5429 7.25563 22.5078 8.92505 23.9866C10.5945 25.4655 12.6854 26.384 14.9038 26.6129C17.1223 26.8418 19.3567 26.3697 21.2929 25.263L22.6156 27.579C20.5921 28.7355 18.3007 29.3411 15.97 29.3355C13.6393 29.3299 11.3509 28.7132 9.33295 27.547C3.34628 24.091 1.05295 16.691 3.84361 10.5203L2.05295 9.48964L7.60628 6.53764L7.82628 12.823L6.16495 11.8643L6.16628 11.863ZM17.8863 19.771L14.1116 16.0003L10.3409 19.771L8.45562 17.8856L14.1129 12.2296L17.8849 16.0003L21.6569 12.2296L23.5423 14.115L17.8849 19.771H17.8863Z" fill="white"/>
</svg>
