<svg width="122" height="13" viewBox="0 0 122 13" fill="none" xmlns="http://www.w3.org/2000/svg">
<path d="M120.003 5.52481V9.84462C120.003 10.1455 120.073 10.3658 120.213 10.5055C120.363 10.6344 120.61 10.6989 120.954 10.6989H122.002V12.6009H120.583C118.681 12.6009 117.73 11.6768 117.73 9.8285V5.52481H116.667V3.67115H117.73V1.46289H120.003V3.67115H122.002V5.52481H120.003Z" fill="white"/>
<path d="M115.727 7.94241C115.727 8.26478 115.706 8.55492 115.663 8.81282H109.135C109.189 9.45757 109.414 9.96262 109.812 10.328C110.209 10.6933 110.698 10.876 111.279 10.876C112.117 10.876 112.713 10.516 113.068 9.79606H115.502C115.244 10.6557 114.75 11.3649 114.019 11.9237C113.288 12.4718 112.391 12.7458 111.327 12.7458C110.467 12.7458 109.694 12.5577 109.006 12.1816C108.329 11.7948 107.797 11.2521 107.41 10.5536C107.034 9.85516 106.846 9.04923 106.846 8.13583C106.846 7.21169 107.034 6.40038 107.41 5.70191C107.786 5.00343 108.313 4.46614 108.99 4.09003C109.667 3.71393 110.446 3.52588 111.327 3.52588C112.176 3.52588 112.934 3.70856 113.6 4.07392C114.277 4.43927 114.798 4.96044 115.163 5.63743C115.539 6.30367 115.727 7.072 115.727 7.94241ZM113.39 7.29766C113.379 6.71739 113.17 6.25531 112.762 5.91145C112.353 5.55684 111.854 5.37953 111.263 5.37953C110.704 5.37953 110.231 5.55146 109.844 5.89533C109.468 6.22845 109.237 6.69589 109.151 7.29766H113.39Z" fill="white"/>
<path d="M105.198 0.67334V12.6012H102.941V0.67334H105.198Z" fill="white"/>
<path d="M100.712 0.67334V12.6012H98.4549V0.67334H100.712Z" fill="white"/>
<path d="M86.9512 8.10359C86.9512 7.20095 87.1285 6.40038 87.4831 5.70191C87.8485 5.00343 88.3374 4.46614 88.9499 4.09003C89.5732 3.71393 90.2663 3.52588 91.0292 3.52588C91.6955 3.52588 92.2758 3.6602 92.7701 3.92885C93.2751 4.19749 93.6781 4.53598 93.979 4.94433V3.67095H96.2517V12.6007H93.979V11.2951C93.6888 11.7142 93.2859 12.0634 92.7701 12.3428C92.265 12.6115 91.6794 12.7458 91.0131 12.7458C90.2609 12.7458 89.5732 12.5524 88.9499 12.1655C88.3374 11.7787 87.8485 11.236 87.4831 10.5375C87.1285 9.8283 86.9512 9.01699 86.9512 8.10359ZM93.979 8.13583C93.979 7.5878 93.8715 7.12035 93.6566 6.7335C93.4417 6.33591 93.1515 6.03503 92.7862 5.83086C92.4208 5.61594 92.0286 5.50848 91.6095 5.50848C91.1904 5.50848 90.8036 5.61057 90.449 5.81474C90.0944 6.01891 89.8042 6.31979 89.5786 6.71738C89.3636 7.10423 89.2562 7.5663 89.2562 8.10359C89.2562 8.64088 89.3636 9.1137 89.5786 9.52204C89.8042 9.91964 90.0944 10.2259 90.449 10.4408C90.8143 10.6557 91.2012 10.7632 91.6095 10.7632C92.0286 10.7632 92.4208 10.6611 92.7862 10.4569C93.1515 10.242 93.4417 9.94113 93.6566 9.55428C93.8715 9.15668 93.979 8.68387 93.979 8.13583Z" fill="white"/>
<path d="M86.0581 1.3501L82.915 12.601H80.2554L78.1438 4.58996L75.9356 12.601L73.2921 12.6171L70.2618 1.3501H72.6796L74.6622 10.0864L76.9511 1.3501H79.4656L81.6255 10.0381L83.6242 1.3501H86.0581Z" fill="white"/>
<path d="M62.9175 5.05813C63.2077 4.58531 63.5838 4.21458 64.0458 3.94594C64.5187 3.67729 65.0559 3.54297 65.6577 3.54297V5.91242H65.0613C64.3521 5.91242 63.8148 6.07898 63.4494 6.4121C63.0948 6.74522 62.9175 7.32549 62.9175 8.15292V12.6017H60.6609V3.67192H62.9175V5.05813Z" fill="white"/>
<path d="M59.0132 7.94241C59.0132 8.26478 58.9917 8.55492 58.9487 8.81282H52.4206C52.4744 9.45757 52.7 9.96262 53.0976 10.328C53.4952 10.6933 53.9842 10.876 54.5644 10.876C55.4026 10.876 55.999 10.516 56.3536 9.79606H58.7875C58.5296 10.6557 58.0353 11.3649 57.3046 11.9237C56.5739 12.4718 55.6766 12.7458 54.6128 12.7458C53.7531 12.7458 52.9794 12.5577 52.2917 12.1816C51.6147 11.7948 51.0828 11.2521 50.6959 10.5536C50.3198 9.85516 50.1318 9.04923 50.1318 8.13583C50.1318 7.21169 50.3198 6.40038 50.6959 5.70191C51.072 5.00343 51.5986 4.46614 52.2756 4.09003C52.9526 3.71393 53.7316 3.52588 54.6128 3.52588C55.4617 3.52588 56.2193 3.70856 56.8855 4.07392C57.5625 4.43927 58.0837 4.96044 58.449 5.63743C58.8252 6.30367 59.0132 7.072 59.0132 7.94241ZM56.676 7.29766C56.6652 6.71739 56.4557 6.25531 56.0474 5.91145C55.639 5.55684 55.1393 5.37953 54.5483 5.37953C53.9895 5.37953 53.5167 5.55146 53.1299 5.89533C52.7538 6.22845 52.5227 6.69589 52.4368 7.29766H56.676Z" fill="white"/>
<path d="M47.0915 5.52481V9.84462C47.0915 10.1455 47.1613 10.3658 47.301 10.5055C47.4515 10.6344 47.6986 10.6989 48.0425 10.6989H49.0902V12.6009H47.6718C45.7698 12.6009 44.8187 11.6768 44.8187 9.8285V5.52481H43.7549V3.67115H44.8187V1.46289H47.0915V3.67115H49.0902V5.52481H47.0915Z" fill="white"/>
<path d="M40.204 5.05813C40.4941 4.58531 40.8702 4.21458 41.3323 3.94594C41.8051 3.67729 42.3424 3.54297 42.9442 3.54297V5.91242H42.3478C41.6385 5.91242 41.1013 6.07898 40.7359 6.4121C40.3813 6.74522 40.204 7.32549 40.204 8.15292V12.6017H37.9474V3.67192H40.204V5.05813Z" fill="white"/>
<path d="M26.4405 8.10359C26.4405 7.20095 26.6178 6.40038 26.9724 5.70191C27.3378 5.00343 27.8267 4.46614 28.4392 4.09003C29.0625 3.71393 29.7556 3.52588 30.5185 3.52588C31.1848 3.52588 31.7651 3.6602 32.2594 3.92885C32.7644 4.19749 33.1674 4.53598 33.4683 4.94433V3.67095H35.741V12.6007H33.4683V11.2951C33.1781 11.7142 32.7752 12.0634 32.2594 12.3428C31.7543 12.6115 31.1687 12.7458 30.5024 12.7458C29.7502 12.7458 29.0625 12.5524 28.4392 12.1655C27.8267 11.7787 27.3378 11.236 26.9724 10.5375C26.6178 9.8283 26.4405 9.01699 26.4405 8.10359ZM33.4683 8.13583C33.4683 7.5878 33.3608 7.12035 33.1459 6.7335C32.931 6.33591 32.6408 6.03503 32.2755 5.83086C31.9101 5.61594 31.5179 5.50848 31.0988 5.50848C30.6797 5.50848 30.2929 5.61057 29.9383 5.81474C29.5837 6.01891 29.2935 6.31979 29.0679 6.71738C28.8529 7.10423 28.7455 7.5663 28.7455 8.10359C28.7455 8.64088 28.8529 9.1137 29.0679 9.52204C29.2935 9.91964 29.5837 10.2259 29.9383 10.4408C30.3036 10.6557 30.6905 10.7632 31.0988 10.7632C31.5179 10.7632 31.9101 10.6611 32.2755 10.4569C32.6408 10.242 32.931 9.94113 33.1459 9.55428C33.3608 9.15668 33.4683 8.68387 33.4683 8.13583Z" fill="white"/>
<path d="M21.2214 3.54297C22.3174 3.54297 23.1986 3.88146 23.8648 4.55845C24.5418 5.22469 24.8803 6.15957 24.8803 7.3631V12.6017H22.6237V7.66936C22.6237 6.97088 22.4464 6.43896 22.0918 6.07361C21.7372 5.6975 21.2536 5.50945 20.6411 5.50945C20.0286 5.50945 19.5396 5.6975 19.1743 6.07361C18.8197 6.43896 18.6424 6.97088 18.6424 7.66936V12.6017H16.3857V7.66936C16.3857 6.97088 16.2084 6.43896 15.8538 6.07361C15.4992 5.6975 15.0157 5.50945 14.4031 5.50945C13.7799 5.50945 13.2856 5.6975 12.9202 6.07361C12.5656 6.43896 12.3883 6.97088 12.3883 7.66936V12.6017H10.1317V3.67192H12.3883V4.75187C12.6784 4.37577 13.0492 4.08026 13.5005 3.86534C13.9626 3.65043 14.4676 3.54297 15.0157 3.54297C15.7141 3.54297 16.3374 3.69341 16.8854 3.99429C17.4335 4.28443 17.8579 4.70352 18.1588 5.25155C18.4489 4.73575 18.868 4.32204 19.4161 4.01041C19.9748 3.69878 20.5766 3.54297 21.2214 3.54297Z" fill="white"/>
<path d="M4.19502 12.7148C3.41058 12.7148 2.70135 12.5805 2.06735 12.3119C1.44409 12.0432 0.949784 11.6564 0.584426 11.1513C0.219069 10.6463 0.0310171 10.0499 0.0202713 9.36213H2.43808C2.47032 9.8242 2.6315 10.1896 2.92164 10.4582C3.22252 10.7268 3.63086 10.8612 4.14666 10.8612C4.67321 10.8612 5.08692 10.7376 5.3878 10.4904C5.68869 10.2325 5.83913 9.89942 5.83913 9.49108C5.83913 9.15796 5.73704 8.88394 5.53287 8.66903C5.3287 8.45411 5.0708 8.28755 4.75917 8.16935C4.45829 8.0404 4.03921 7.9007 3.50191 7.75026C2.7712 7.53534 2.17481 7.3258 1.71274 7.12163C1.26141 6.90671 0.86919 6.58971 0.53607 6.17062C0.213696 5.74079 0.0525087 5.17126 0.0525087 4.46204C0.0525087 3.7958 0.219069 3.21553 0.552189 2.72122C0.885309 2.22691 1.35275 1.85081 1.95452 1.59291C2.55628 1.32426 3.24401 1.18994 4.01771 1.18994C5.17826 1.18994 6.11852 1.47471 6.83849 2.04423C7.5692 2.60301 7.97217 3.38746 8.04739 4.39757H5.56511C5.54362 4.01072 5.37706 3.69371 5.06543 3.44656C4.76455 3.18866 4.36158 3.05971 3.85653 3.05971C3.41595 3.05971 3.06134 3.17254 2.79269 3.39821C2.53479 3.62387 2.40584 3.95162 2.40584 4.38145C2.40584 4.68233 2.50255 4.93486 2.69598 5.13903C2.90015 5.33245 3.1473 5.49364 3.43744 5.62259C3.73832 5.74079 4.15741 5.88049 4.6947 6.04168C5.42541 6.25659 6.02181 6.47151 6.48388 6.68642C6.94595 6.90134 7.34354 7.22371 7.67666 7.65355C8.00978 8.08338 8.17634 8.64753 8.17634 9.34601C8.17634 9.94778 8.02053 10.5066 7.7089 11.0224C7.39727 11.5382 6.94057 11.9519 6.33881 12.2635C5.73704 12.5644 5.02245 12.7148 4.19502 12.7148Z" fill="white"/>
</svg>
