<svg width="25" height="28" viewBox="0 0 25 28" fill="none" xmlns="http://www.w3.org/2000/svg">
<path fill-rule="evenodd" clip-rule="evenodd" d="M17.5 18H22.5C23.0303 18.0005 23.5387 18.2114 23.9136 18.5864C24.2886 18.9613 24.4995 19.4697 24.5 20V28H22.5V20H2.5V28H0.5V20C0.500529 19.4697 0.711413 18.9613 1.08637 18.5864C1.46133 18.2114 1.96973 18.0005 2.5 18H7.5V16H6.5C5.96973 15.9995 5.46133 15.7886 5.08637 15.4136C4.71141 15.0387 4.50053 14.5303 4.5 14V10H2.5V8H4.5V6C4.50053 5.46973 4.71141 4.96133 5.08637 4.58637C5.46133 4.21141 5.96973 4.00053 6.5 4H8.5V0H10.5V4H14.5V0H16.5V4H18.5C19.0303 4.00053 19.5387 4.21141 19.9136 4.58637C20.2886 4.96133 20.4995 5.46973 20.5 6V8H22.5V10H20.5V14C20.4995 14.5303 20.2886 15.0387 19.9136 15.4136C19.5387 15.7886 19.0303 15.9995 18.5 16H17.5V18ZM18.5 6H6.5V14H18.5V6ZM15.5 16H9.5V18H15.5V16ZM8.5 8H10.5V10H8.5V8ZM14.5 8H16.5V10H14.5V8Z" fill="white"/>
</svg>
